HIERARCHY
ROOT Hips
{
	OFFSET -3.958830 18.904000 13.208200
	CHANNELS 6 Xposition Yposition Zposition Zrotation Yrotation Xrotation 
	JOINT LHipJoint
	{
		OFFSET 0.000000 0.000000 0.000000
		CHANNELS 3 Zrotation Yrotation Xrotation
		JOINT LeftUpLeg
		{
			OFFSET 1.800000 -1.400000 0.085000
			CHANNELS 3 Zrotation Yrotation Xrotation
			JOINT LeftLeg
			{
				OFFSET 2.215000 -6.000000 0.000000
				CHANNELS 3 Zrotation Yrotation Xrotation
				JOINT LeftFoot
				{
					OFFSET 2.500000 -6.900000 0.000000
					CHANNELS 3 Zrotation Yrotation Xrotation
					JOINT LeftToeBase
					{
						OFFSET 0.200000 -0.500000 1.950000
						CHANNELS 3 Zrotation Yrotation Xrotation
						End Site
						{
							OFFSET 0.000000 0.000000 0.000000
						}
					}
				}
			}
		}
	}
	JOINT RHipJoint
	{
		OFFSET 0.000000 0.000000 0.000000
		CHANNELS 3 Zrotation Yrotation Xrotation
		JOINT RightUpLeg
		{
			OFFSET -1.800000 -1.400000 0.085000
			CHANNELS 3 Zrotation Yrotation Xrotation
			JOINT RightLeg
			{
				OFFSET -2.215000 -6.000000 0.000000
				CHANNELS 3 Zrotation Yrotation Xrotation
				JOINT RightFoot
				{
					OFFSET -2.500000 -6.900000 0.000000
					CHANNELS 3 Zrotation Yrotation Xrotation
					JOINT RightToeBase
					{
						OFFSET -0.200000 -0.500000 1.950000
						CHANNELS 3 Zrotation Yrotation Xrotation
						End Site
						{
							OFFSET 0.000000 0.000000 0.000000
						}
					}
				}
			}
		}
	}
	JOINT LowerBack
	{
		OFFSET 0.000000 0.000000 0.000000
		CHANNELS 3 Zrotation Yrotation Xrotation
		JOINT Spine
		{
			OFFSET -0.087000 1.940000 -0.288900
			CHANNELS 3 Zrotation Yrotation Xrotation
			JOINT Spine1
			{
				OFFSET 0.000000 1.950000 0.060000
				CHANNELS 3 Zrotation Yrotation Xrotation
				JOINT Neck
				{
					OFFSET 0.000000 0.000000 0.000000
					CHANNELS 3 Zrotation Yrotation Xrotation
					JOINT Neck1
					{
						OFFSET 0.000000 1.600000 0.340000
						CHANNELS 3 Zrotation Yrotation Xrotation
						JOINT Head
						{
							OFFSET 0.000000 1.667000 -0.240000
							CHANNELS 3 Zrotation Yrotation Xrotation
							End Site
							{
								OFFSET 0.000000 0.000000 0.000000
							}
						}
					}
				}
				JOINT LeftShoulder
				{
					OFFSET 0.000000 0.000000 0.000000
					CHANNELS 3 Zrotation Yrotation Xrotation
					JOINT LeftArm
					{
						OFFSET 2.700000 1.550000 -0.730000
						CHANNELS 3 Zrotation Yrotation Xrotation
						JOINT LeftForeArm
						{
							OFFSET 5.450000 0.000000 0.000000
							CHANNELS 3 Zrotation Yrotation Xrotation
							JOINT LeftHand
							{
								OFFSET 3.450000 0.000000 0.000000
								CHANNELS 3 Zrotation Yrotation Xrotation
								JOINT LeftHandIndex1
								{
									OFFSET 0.750000 0.000000 0.000000
									CHANNELS 3 Zrotation Yrotation Xrotation
									End Site
									{
										OFFSET 0.000000 0.000000 0.000000
									}
								}
							}
						}
					}
				}
				JOINT RightShoulder
				{
					OFFSET 0.000000 0.000000 0.000000
					CHANNELS 3 Zrotation Yrotation Xrotation
					JOINT RightArm
					{
						OFFSET -2.700000 1.550000 -0.730000
						CHANNELS 3 Zrotation Yrotation Xrotation
						JOINT RightForeArm
						{
							OFFSET -5.450000 0.000000 0.000000
							CHANNELS 3 Zrotation Yrotation Xrotation
							JOINT RightHand
							{
								OFFSET -3.450000 0.000000 0.000000
								CHANNELS 3 Zrotation Yrotation Xrotation
								JOINT RightHandIndex1
								{
									OFFSET -0.750000 0.000000 0.000000
									CHANNELS 3 Zrotation Yrotation Xrotation
									End Site
									{
										OFFSET 0.000000 0.000000 0.000000
									}
								}
							}
						}
					}
				}
			}
		}
	}
}
MOTION
Frames: 14
Frame Time: 0.016667
0.262990 16.838750 -1.286080 -5.302806 17.641639 10.229482 -15.026011 11.693066 2.524586 16.068231 -1.595387 -18.160532 -4.449451 3.796856 3.221303 -0.145478 3.361023 3.439147 0.002860 -0.039520 -0.039000 18.516319 -11.194043 2.851032 -13.361229 0.356738 -5.589423 7.698811 -3.963967 0.254222 -0.179331 -4.419801 2.918333 0.091070 0.313090 0.118840 -4.237702 1.646508 -6.548585 2.323883 9.140160 -1.338767 -2.423227 8.423649 -0.149213 4.197189 6.133168 -7.536099 12.799786 -5.180239 12.696280 3.290500 -3.303940 -4.403760 -26.963477 -2.691769 1.465443 -57.325087 3.316089 -6.444624 -2.290616 -6.417828 -0.775435 -4.168831 2.978165 -0.168800 0.294900 -0.241330 0.057220 18.544328 1.208592 4.494556 66.387195 -7.008661 -8.787404 6.585980 10.152958 -0.976126 2.554099 -1.433369 -0.085360 0.038450 0.040680 0.010250 
0.267290 16.843060 -1.281350 -5.381764 17.815589 10.293944 -15.024485 11.684080 2.528658 16.106814 -1.604553 -18.225500 -4.401293 3.775944 3.158903 -0.151997 3.358179 3.438983 0.007880 -0.032970 -0.035600 18.519602 -11.197383 2.847361 -13.257357 0.355817 -5.619811 7.696033 -3.960792 0.291583 -0.179083 -4.413325 2.919476 0.097350 0.312480 0.119520 -4.244986 1.664495 -6.543988 2.462757 9.165003 -1.323034 -2.313376 8.431360 -0.288820 4.176347 6.132083 -7.471962 12.886918 -5.385161 12.304477 3.291040 -3.440630 -4.749010 -27.087960 -2.483909 1.375022 -57.339781 3.545944 -6.526761 -2.442665 -6.293070 -0.781707 -4.172409 2.973249 -0.168670 0.295130 -0.240770 0.056780 18.691147 1.008953 4.430498 66.352508 -7.269005 -8.876118 6.387339 10.004141 -0.987871 2.552301 -1.430743 -0.085560 0.041790 0.040490 0.009510 
0.275720 16.850910 -1.275180 -5.430287 18.257497 10.410220 -15.020962 11.643328 2.540228 16.173638 -1.630558 -18.297190 -4.436693 3.733188 2.905961 -0.162355 3.360806 3.435050 0.018700 -0.021150 -0.024430 18.528496 -11.189709 2.853505 -13.209478 0.367615 -5.564852 7.767968 -3.948228 0.144439 -0.187542 -4.426285 2.909707 0.108150 0.306940 0.123780 -4.261703 1.716746 -6.545355 2.658163 9.195478 -1.346839 -2.244312 8.424226 -0.412145 4.230949 6.260115 -7.483301 13.272589 -5.731688 11.635877 3.213990 -3.559880 -5.318160 -27.124119 -2.352194 1.338356 -57.380376 3.873264 -6.599309 -2.854648 -5.907644 -0.788102 -4.177702 2.969140 -0.165480 0.294560 -0.236350 0.054570 18.578712 0.804149 4.388737 66.503032 -7.445059 -8.923808 5.882139 9.816846 -1.000358 2.548663 -1.431214 -0.085120 0.043120 0.038690 0.005250 
0.284390 16.861890 -1.267770 -5.457135 18.581264 10.486983 -15.012670 11.597105 2.543272 16.221855 -1.641004 -18.332146 -4.467760 3.697208 2.704898 -0.176503 3.358468 3.431421 0.036180 -0.002290 -0.006700 18.542080 -11.192200 2.862656 -13.214470 0.380850 -5.486704 7.819544 -3.935874 -0.017392 -0.200688 -4.440950 2.899475 0.122710 0.295420 0.125520 -4.291433 1.801615 -6.541466 2.910227 9.233632 -1.368779 -2.176760 8.424910 -0.422404 4.281216 6.362775 -7.500051 13.646526 -6.114548 10.948419 3.193710 -3.679620 -6.144040 -26.739261 -2.078680 1.297030 -57.780404 4.095225 -6.689382 -3.553081 -5.489772 -0.803751 -4.179441 2.958979 -0.156320 0.288790 -0.227430 0.052260 18.045604 0.486618 4.306741 66.825367 -7.319510 -8.893254 5.437726 9.720266 -1.006488 2.543313 -1.430630 -0.084820 0.046880 0.033370 -0.001840 
0.290500 16.870270 -1.261730 -5.405352 18.975981 10.550753 -15.001573 11.565130 2.528504 16.067945 -1.658032 -18.386701 -4.319926 3.637161 2.631286 -0.191331 3.324610 3.441159 0.052570 0.015450 0.009360 18.555515 -11.214110 2.875606 -13.289243 0.387770 -5.391123 7.860349 -3.939869 -0.108920 -0.212772 -4.464618 2.885981 0.135390 0.285340 0.129660 -4.328758 1.901929 -6.529967 3.139575 9.274772 -1.406217 -2.164252 8.432036 -0.266776 4.320791 6.438639 -7.600106 13.979095 -6.589377 10.368831 3.038990 -3.859010 -6.718870 -26.102122 -1.981777 1.347843 -58.247946 4.181394 -6.753374 -4.499664 -5.063353 -0.823865 -4.181501 2.954942 -0.152080 0.285460 -0.219390 0.051670 17.276360 0.383918 4.303275 67.291887 -6.962735 -8.793906 5.199698 9.720693 -1.012353 2.538151 -1.437349 -0.081530 0.047550 0.026930 -0.006100 
0.296060 16.878160 -1.257100 -5.400688 19.380314 10.541279 -14.993565 11.542675 2.528950 16.031862 -1.657259 -18.459491 -4.333152 3.626826 2.626469 -0.198310 3.312395 3.443062 0.060060 0.021630 0.019080 18.562434 -11.245633 2.871168 -13.347669 0.379039 -5.374628 7.897967 -3.982019 0.078395 -0.216811 -4.472112 2.879015 0.139460 0.276720 0.130050 -4.354819 1.990244 -6.524210 3.331266 9.297200 -1.377830 -2.024662 8.436508 -0.190756 4.275661 6.529939 -7.674910 14.277591 -7.115464 10.073857 2.987580 -4.192350 -7.027320 -25.742809 -1.929933 1.441888 -58.652093 4.515513 -6.981037 -5.536123 -4.944362 -0.857791 -4.175692 2.949961 -0.146800 0.279750 -0.213710 0.049920 16.954914 0.334798 4.280236 67.237011 -6.724709 -8.671074 5.332238 9.671116 -1.001993 2.537441 -1.439178 -0.080180 0.048110 0.023580 -0.009130 
0.301420 16.882140 -1.248620 -5.363974 19.741845 10.563007 -14.987910 11.525237 2.521627 15.955213 -1.657812 -18.580593 -4.301200 3.620083 2.700519 -0.206449 3.295639 3.447438 0.062740 0.021590 0.025840 18.567961 -11.263004 2.877789 -13.447837 0.384621 -5.330959 7.991740 -4.008281 0.101677 -0.220547 -4.488692 2.870674 0.140310 0.270330 0.130160 -4.373922 2.053914 -6.518270 3.429233 9.370249 -1.364137 -1.824901 8.492150 -0.161103 4.199798 6.548990 -7.714821 14.445148 -7.654496 9.799656 2.815290 -4.521830 -7.219170 -25.322243 -1.765590 1.459272 -59.095730 4.803963 -7.166240 -6.635043 -4.513055 -0.897980 -4.176001 2.941850 -0.142840 0.276350 -0.211000 0.047080 16.643041 0.221748 4.272657 67.279452 -6.708142 -8.723398 5.370868 9.748850 -1.003828 2.535296 -1.438592 -0.080460 0.048210 0.022660 -0.012380 
0.309730 16.887490 -1.242690 -5.323765 20.139580 10.565222 -14.980656 11.513956 2.504830 15.784099 -1.669395 -18.725040 -4.123936 3.589505 2.813657 -0.218283 3.260206 3.460518 0.059840 0.013660 0.029100 18.574249 -11.287384 2.888588 -13.561664 0.386859 -5.280231 8.079435 -4.035465 0.114535 -0.221649 -4.507680 2.863045 0.137220 0.265720 0.127350 -4.398363 2.123507 -6.509555 3.573378 9.519133 -1.362473 -1.698229 8.631766 -0.135957 4.147014 6.530861 -7.747275 14.531002 -8.211452 9.619973 2.609760 -4.894420 -7.261030 -24.883785 -1.593168 1.410372 -59.626554 4.834242 -7.255503 -7.301823 -4.067777 -0.928309 -4.178899 2.931179 -0.138360 0.272990 -0.211810 0.043230 16.266907 0.121711 4.338219 67.435997 -6.839670 -8.865422 5.506069 9.890173 -1.006718 2.533104 -1.435210 -0.084160 0.048930 0.024270 -0.016340 
0.317710 16.894110 -1.235150 -5.319877 20.460560 10.603559 -14.976184 11.504929 2.484055 15.596207 -1.685391 -18.882236 -3.841768 3.535221 2.898645 -0.228333 3.214489 3.474256 0.060580 0.011320 0.034410 18.578943 -11.301111 2.906357 -13.650232 0.394961 -5.220538 8.274277 -4.060483 0.051957 -0.225357 -4.533209 2.849555 0.136460 0.258790 0.129250 -4.414477 2.176833 -6.499584 3.657868 9.677630 -1.353036 -1.499326 8.772988 -0.217398 4.111860 6.564393 -7.728006 14.706352 -8.665642 9.378337 2.429040 -5.155790 -7.309720 -24.798228 -1.345872 1.324490 -59.866762 5.036615 -7.416254 -7.665236 -3.959135 -0.953903 -4.180736 2.928931 -0.138210 0.270780 -0.210920 0.038590 16.217880 -0.091198 4.353458 67.361501 -7.135652 -9.055391 5.544092 10.214259 -1.022141 2.529807 -1.435899 -0.082370 0.043760 0.024680 -0.019250 
0.329370 16.900520 -1.228120 -5.282412 20.857019 10.625952 -14.969539 11.481803 2.475358 15.429791 -1.707842 -18.969634 -3.793298 3.507170 2.901997 -0.228914 3.185090 3.482558 0.058620 0.004460 0.040400 18.585872 -11.317041 2.921492 -13.784083 0.387849 -5.059873 8.402315 -4.092770 -0.022448 -0.234401 -4.564933 2.834828 0.128840 0.248790 0.133310 -4.437000 2.247961 -6.498688 3.797249 9.768225 -1.360678 -1.468291 8.855688 -0.319436 4.115327 6.688082 -7.712955 15.003090 -9.163286 9.301616 2.267110 -5.438040 -7.293360 -24.713534 -1.133823 1.276544 -60.076047 5.220214 -7.554200 -7.794959 -3.863045 -0.966797 -4.179411 2.924839 -0.134680 0.265780 -0.205430 0.033480 16.079500 -0.354100 4.341697 67.528200 -7.308195 -9.176264 5.444172 10.359418 -1.020315 2.533157 -1.432414 -0.077940 0.035300 0.024170 -0.021960 
0.337650 16.907400 -1.222520 -5.267473 21.246643 10.644981 -14.965063 11.457037 2.473436 15.335850 -1.729321 -19.054080 -3.791992 3.487765 2.862084 -0.227188 3.170451 3.486293 0.051010 -0.009020 0.041850 18.591791 -11.327769 2.933018 -13.826668 0.382766 -4.929551 8.428353 -4.098210 -0.131111 -0.236493 -4.588461 2.823624 0.119330 0.244060 0.137290 -4.453766 2.310103 -6.500250 3.885379 9.831373 -1.390581 -1.315321 8.904152 -0.407025 4.065496 6.803304 -7.709469 15.273565 -9.654251 9.258909 2.017310 -5.747170 -6.977720 -24.789888 -1.042423 1.303376 -60.268837 5.525820 -7.786080 -7.918631 -4.110385 -0.979164 -4.180197 2.924606 -0.137500 0.265930 -0.206490 0.026840 16.212719 -0.467780 4.308659 67.554247 -7.421334 -9.204383 5.056768 10.392637 -1.020039 2.537950 -1.432707 -0.074930 0.025830 0.027540 -0.023510 
0.351270 16.912630 -1.216830 -5.294790 21.736159 10.689448 -14.956722 11.419065 2.469575 15.215091 -1.759658 -19.144347 -3.791707 3.458577 2.795877 -0.223684 3.147647 3.492947 0.041650 -0.023900 0.039000 18.603066 -11.344652 2.953214 -13.793335 0.369561 -4.722468 8.396835 -4.084078 -0.369032 -0.243270 -4.615671 2.813357 0.106960 0.239710 0.142010 -4.483346 2.408884 -6.504704 4.027677 9.915902 -1.439310 -1.259664 8.968068 -0.528127 4.050451 7.023837 -7.794316 15.784710 -10.194076 9.063766 2.051580 -6.144260 -6.751320 -24.662548 -0.979219 1.382688 -60.493606 5.823931 -8.047997 -8.261253 -4.427793 -0.995053 -4.177330 2.926527 -0.137680 0.264070 -0.205920 0.021430 16.046243 -0.624855 4.333084 67.818719 -7.563259 -9.244975 4.955144 10.287048 -1.004047 2.544803 -1.430477 -0.070950 0.015350 0.031500 -0.023540 
0.364760 16.918200 -1.210410 -5.412512 22.205099 10.735468 -14.945485 11.372191 2.462710 15.123034 -1.782711 -19.297452 -3.774034 3.434576 2.775947 -0.218653 3.117626 3.503149 0.032060 -0.037940 0.034200 18.619803 -11.368582 2.977738 -13.572748 0.334030 -4.456337 8.364877 -4.059343 -0.664184 -0.251633 -4.638629 2.810124 0.094100 0.235510 0.141440 -4.523117 2.538467 -6.504798 4.191095 10.135488 -1.497420 -1.092562 9.163076 -0.759819 3.977579 7.215592 -7.856816 16.323414 -10.861116 8.680932 2.327830 -6.711860 -6.686070 -24.446449 -0.724793 1.384234 -60.871297 6.039395 -8.325528 -8.607745 -4.861243 -1.002342 -4.171227 2.922086 -0.136360 0.258820 -0.205560 0.017970 15.885858 -0.906942 4.361191 68.208171 -7.924323 -9.372725 4.647813 10.129625 -0.985467 2.553408 -1.422201 -0.068320 0.008970 0.033320 -0.022160 
0.378100 16.924150 -1.206450 -5.618333 22.580629 10.729754 -14.932763 11.332198 2.450901 14.935306 -1.811544 -19.461200 -3.623163 3.383465 2.751420 -0.208431 3.069779 3.522343 0.015830 -0.060200 0.024460 18.638588 -11.408552 2.998003 -13.151495 0.273580 -4.181273 8.225484 -4.030184 -0.892158 -0.256518 -4.650444 2.811488 0.074140 0.235320 0.143300 -4.569186 2.683668 -6.497364 4.415855 10.301464 -1.580285 -0.784370 9.293458 -1.017669 3.848957 7.405535 -7.902313 16.854612 -11.437495 8.332455 2.646330 -7.251530 -6.334140 -24.026202 -0.315578 1.392304 -61.760305 6.273057 -8.694087 -8.862712 -5.362594 -1.004827 -4.171075 2.916903 -0.139450 0.255980 -0.207400 0.015030 15.623038 -1.334234 4.304577 68.733706 -8.149106 -9.425654 4.057827 9.838583 -0.956517 2.569293 -1.415515 -0.063860 -0.001560 0.036600 -0.017700 
